<?xml version="1.0" standalone="no"?>
<!DOCTYPE svg PUBLIC "-//W3C//DTD SVG 20010904//EN"
 "http://www.w3.org/TR/2001/REC-SVG-20010904/DTD/svg10.dtd">
<svg version="1.0" xmlns="http://www.w3.org/2000/svg"
 width="260.000000pt" height="260.000000pt" viewBox="0 0 260.000000 260.000000"
 preserveAspectRatio="xMidYMid meet">
<metadata>
Created by potrace 1.11, written by Peter Selinger 2001-2013
</metadata>
<g transform="translate(0.000000,260.000000) scale(0.100000,-0.100000)"
fill="#000000" stroke="none">
<path d="M1206 2520 c-91 -92 -94 -93 -269 -94 l-118 -1 -99 -99 -99 -99 -123
-1 -123 -1 0 -118 c0 -64 -3 -117 -7 -117 -5 0 -8 -5 -8 -12 0 -6 -41 -52 -92
-102 l-92 -91 -2 -103 c-1 -57 -4 -106 -7 -109 -3 -3 -2 -16 3 -29 6 -15 6
-24 0 -24 -6 0 -10 -10 -10 -23 0 -16 -26 -49 -80 -103 -75 -75 -95 -104 -68
-104 6 0 8 -3 5 -7 -4 -3 29 -43 73 -88 73 -76 79 -85 76 -119 -1 -20 0 -39 3
-41 3 -1 5 -47 5 -102 l-1 -98 98 -101 c55 -56 99 -105 100 -110 0 -5 2 -61 2
-124 2 -86 5 -114 15 -112 6 1 12 -2 12 -6 0 -5 46 -8 103 -7 62 0 112 -4 127
-11 14 -7 65 -53 113 -102 l88 -89 140 1 139 1 78 -78 c42 -43 85 -83 94 -88
15 -8 34 6 104 77 l87 87 143 1 c79 0 144 4 144 8 0 4 7 8 15 8 7 0 18 6 22
13 5 6 46 48 93 92 l85 80 113 -1 c137 -1 136 -2 138 136 1 52 2 102 3 111 1
10 41 57 91 105 49 49 90 95 90 102 0 6 4 12 9 12 4 0 7 55 7 123 -1 78 3 134
11 155 7 19 47 67 88 107 41 41 75 77 75 81 0 3 -39 46 -87 95 l-86 88 -1 140
-1 139 -100 104 -100 103 1 113 c1 61 -3 112 -7 112 -5 0 -9 6 -9 14 0 10 -23
13 -107 12 -60 -1 -117 2 -128 7 -11 5 -63 51 -115 102 l-95 93 -125 -2 c-69
-1 -134 2 -145 7 -11 5 -54 42 -95 82 -41 40 -84 76 -95 79 -16 4 -38 -12 -99
-74z m189 -974 c17 -2 31 -4 33 -5 1 0 3 0 5 0 1 1 21 -8 45 -20 23 -12 42
-19 42 -16 0 3 15 -5 33 -19 19 -14 36 -23 40 -20 3 3 10 -4 17 -15 6 -12 16
-21 23 -21 15 0 132 -118 139 -140 3 -9 -22 -41 -64 -82 -37 -38 -68 -65 -68
-62 0 3 -17 -8 -39 -25 -21 -17 -41 -28 -45 -24 -3 3 -6 2 -6 -4 0 -9 -20 -18
-55 -24 -5 -1 -19 -8 -30 -15 -11 -8 -32 -14 -47 -14 -15 0 -29 -3 -31 -7 -12
-19 -238 -2 -264 19 -7 6 -13 8 -13 5 0 -16 -166 80 -213 123 -30 28 -60 50
-66 50 -14 0 -31 34 -31 63 0 32 76 103 175 163 91 54 153 81 178 76 4 -1 7 2
7 7 0 5 14 9 30 9 17 -1 34 2 38 6 6 7 85 3 167 -8z"/>
<path d="M1200 1518 c-25 -4 -52 -10 -60 -14 -8 -3 -15 -4 -15 -3 0 10 -176
-91 -197 -113 -15 -16 -32 -28 -37 -28 -5 0 -21 -14 -35 -31 -26 -31 -28 -69
-4 -78 5 -2 38 -27 72 -57 35 -29 66 -50 70 -47 3 4 6 1 6 -5 0 -7 3 -11 8
-10 4 1 35 -12 68 -30 34 -17 64 -28 68 -25 3 4 6 2 6 -3 0 -5 12 -9 28 -8 15
1 32 -2 37 -6 9 -7 154 -7 165 0 3 2 10 4 15 5 53 7 175 61 175 77 0 6 3 8 7
5 3 -4 17 3 30 15 13 12 23 18 23 15 0 -4 23 15 50 42 52 51 59 73 35 105 -8
11 -15 17 -15 14 0 -3 -18 11 -41 32 -59 55 -70 63 -122 88 -25 13 -49 27 -52
32 -3 5 -12 7 -20 3 -8 -3 -15 1 -15 8 0 7 -3 9 -6 6 -4 -3 -15 -2 -25 4 -24
13 -161 17 -219 7z m203 -129 c34 -36 37 -44 37 -97 0 -98 -65 -159 -167 -157
-46 1 -57 6 -95 41 -24 22 -45 51 -46 64 -4 28 -5 82 -1 105 5 30 61 80 106
96 41 13 52 14 87 2 23 -8 58 -32 79 -54z"/>
<path d="M1233 1358 c-41 -20 -40 -94 1 -133 25 -24 116 -8 116 20 0 8 7 21
16 29 8 9 11 16 5 16 -6 0 -11 9 -11 19 0 11 -12 29 -26 40 -29 23 -66 26
-101 9z"/>
</g>
</svg>
